<svg xmlns="http://www.w3.org/2000/svg" viewBox="0 0 1600 1000" role="img" aria-label="Studio shelf background">
  <defs>
    <linearGradient id="base" x1="0" x2="1" y1="0" y2="1">
      <stop offset="0" stop-color="#15202a"/>
      <stop offset=".52" stop-color="#181d19"/>
      <stop offset="1" stop-color="#080b0b"/>
    </linearGradient>
    <radialGradient id="amp" cx="74%" cy="31%" r="42%">
      <stop offset="0" stop-color="#7bb5c7" stop-opacity=".38"/>
      <stop offset="1" stop-color="#080b0b" stop-opacity="0"/>
    </radialGradient>
  </defs>
  <rect width="1600" height="1000" fill="url(#base)"/>
  <rect width="1600" height="1000" fill="url(#amp)"/>
  <g opacity=".22">
    <rect x="140" y="190" width="1320" height="34" fill="#f5f1e8"/>
    <rect x="140" y="430" width="1320" height="34" fill="#f5f1e8"/>
    <rect x="140" y="670" width="1320" height="34" fill="#f5f1e8"/>
    <g fill="#f5f1e8">
      <rect x="184" y="245" width="42" height="172"/>
      <rect x="238" y="260" width="28" height="157"/>
      <rect x="288" y="238" width="54" height="179"/>
      <rect x="392" y="510" width="34" height="146"/>
      <rect x="444" y="492" width="52" height="164"/>
      <rect x="1096" y="487" width="38" height="169"/>
      <rect x="1152" y="514" width="30" height="142"/>
      <rect x="1200" y="500" width="60" height="156"/>
    </g>
  </g>
  <rect x="688" y="286" width="224" height="224" rx="18" fill="#090d0d" opacity=".58"/>
  <circle cx="800" cy="398" r="68" fill="#f5f1e8" opacity=".08"/>
  <circle cx="800" cy="398" r="14" fill="#f5f1e8" opacity=".2"/>
</svg>
